<svg width="16" height="17" viewBox="0 0 16 17" fill="none" xmlns="http://www.w3.org/2000/svg">
<g id="bug" clip-path="url(#clip0_5_4806)">
<path id="Vector" fill-rule="evenodd" clip-rule="evenodd" d="M10.6937 0.515665C10.7053 0.499049 10.7282 0.495011 10.7448 0.506645L11.8809 1.30213C11.8975 1.31377 11.9016 1.33667 11.8899 1.35328L10.3087 3.61148C11.0774 3.85706 11.6012 4.12197 11.6012 4.12197C11.6012 4.12197 10.321 6.32391 8.14981 6.32391C5.97859 6.32391 4.43575 4.27166 4.43575 4.27166C4.43575 4.27166 4.98281 3.92253 5.79375 3.6231L4.05937 1.55617C4.04634 1.54063 4.04837 1.51747 4.06391 1.50443L5.12631 0.612958C5.14188 0.599919 5.16503 0.601946 5.17806 0.617485L7.37406 3.23458C7.56209 3.21331 7.75366 3.20142 7.94697 3.20142C8.22481 3.20142 8.50231 3.22254 8.77322 3.25838L10.6937 0.515665ZM11.1233 6.42819C11.7027 6.01437 12.5794 4.93431 12.5794 4.93431C12.5794 4.93431 14.8189 6.709 14.8189 10.472C14.8189 14.235 10.9472 16.4998 10.9472 16.4998C10.9472 16.4998 9.09731 14.6316 8.64319 12.2634C8.18909 9.89528 9.31494 7.26572 9.31494 7.26572C9.31494 7.26572 10.5438 6.842 11.1233 6.42819ZM4.88316 6.42819C4.30375 6.01437 3.427 4.93431 3.427 4.93431C3.427 4.93431 1.1875 6.709 1.1875 10.472C1.1875 14.235 5.05925 16.4998 5.05925 16.4998C5.05925 16.4998 6.90909 14.6316 7.36322 12.2634C7.81731 9.89528 6.69147 7.26572 6.69147 7.26572C6.69147 7.26572 5.46259 6.842 4.88316 6.42819Z" fill="#212121"/>
</g>
<defs>
<clipPath id="clip0_5_4806">
<rect width="16" height="16" fill="white" transform="translate(0 0.5)"/>
</clipPath>
</defs>
</svg>
