<svg width="16" height="17" viewBox="0 0 16 17" fill="none" xmlns="http://www.w3.org/2000/svg">
<g id="dark" clip-path="url(#clip0_51_30625)">
<path id="Vector" fill-rule="evenodd" clip-rule="evenodd" d="M7.16809 14.6516C7.47206 14.6981 7.78338 14.7222 8.10038 14.7222C11.4754 14.7222 14.2115 11.9862 14.2115 8.61112C14.2115 5.23603 11.4754 2.5 8.10038 2.5C7.87394 2.5 7.65034 2.51232 7.43031 2.53632C9.10453 3.80472 10.2115 6.00194 10.2115 8.5C10.2115 11.1263 8.988 13.42 7.16809 14.6516ZM7.98925 16.5C12.4075 16.5 15.9893 12.9183 15.9893 8.5C15.9893 4.08172 12.4075 0.5 7.98925 0.5C3.57097 0.5 -0.0107422 4.08172 -0.0107422 8.5C-0.0107422 12.9183 3.57097 16.5 7.98925 16.5Z" fill="#212121"/>
</g>
<defs>
<clipPath id="clip0_51_30625">
<rect width="16" height="16" fill="white" transform="translate(0 0.5)"/>
</clipPath>
</defs>
</svg>
