<svg width="16" height="17" viewBox="0 0 16 17" fill="none" xmlns="http://www.w3.org/2000/svg">
<g id="dragon" clip-path="url(#clip0_51_30689)">
<path id="Vector" fill-rule="evenodd" clip-rule="evenodd" d="M8.77194 8.46503C8.88038 8.39891 8.97237 8.26034 9.04656 8.10634C10.023 8.50541 10.7091 9.44841 10.7091 10.5481C10.7091 12.0091 9.49819 13.1934 8.00444 13.1934C7.39125 13.1934 6.82572 12.9938 6.37206 12.6575C6.22325 12.587 6.10081 12.5193 6.00063 12.4639C5.84522 12.378 5.74331 12.3217 5.6795 12.3305C5.49297 12.3562 5.54713 12.5278 5.59634 12.6837C5.62975 12.7896 5.66091 12.8883 5.61269 12.929C5.56225 12.9716 5.39888 12.8158 5.20797 12.6338C4.94809 12.386 4.63722 12.0896 4.49063 12.1787C4.37472 12.2491 4.48725 12.44 4.625 12.6738L4.63522 12.6911C4.69341 12.7899 4.76084 12.8906 4.82238 12.9824C4.94747 13.169 5.04822 13.3193 4.99781 13.3448C4.93688 13.3755 4.51231 13.089 4.15453 12.6911C4.01644 12.5376 3.88269 12.3712 3.75838 12.2165V12.2165C3.48628 11.8779 3.25959 11.5959 3.13234 11.6293C2.97927 11.6695 3.09507 11.9852 3.26522 12.2891C3.34478 12.4312 3.43838 12.5758 3.51941 12.7011V12.7012C3.64544 12.896 3.74109 13.0438 3.70641 13.062C3.65959 13.0865 3.24769 12.6848 2.96792 12.1787C2.80175 11.878 2.66222 11.5457 2.54925 11.2768C2.42675 10.9851 2.3355 10.7678 2.27541 10.7459C2.06664 10.6699 2.06664 11.0956 2.15037 11.7099C2.16129 11.7901 2.17756 11.8742 2.19759 11.9598C3.00959 14.587 5.504 16.5 8.45522 16.5C12.0651 16.5 14.9915 13.6379 14.9915 10.1073C14.9915 6.74688 12.3406 3.99209 8.9725 3.73419C8.97675 3.57589 9.05937 3.26197 9.05937 3.26197C9.05937 3.26197 9.65397 1.82335 9.68541 1.51593C9.68747 1.49553 9.68994 1.47336 9.69259 1.44975C9.72962 1.11759 9.79853 0.5 9.26722 0.5C8.98347 0.5 8.85153 0.711083 8.70063 0.952497C8.64269 1.04518 8.58194 1.14233 8.50875 1.23372C7.98163 1.89199 7.09525 2.71403 6.59266 3.15197C5.53034 4.07762 4.48809 4.83838 3.88022 5.28206L3.88019 5.28209C3.60372 5.48387 3.41713 5.62009 3.35938 5.67637C2.92419 6.10063 1.36381 8.91519 1.36381 8.91519C1.36381 8.91519 0.859197 9.81819 1.03856 10.0013C1.21792 10.1845 1.65044 10.1425 1.65044 10.1425C1.65044 10.1425 7.46109 8.80947 7.98131 8.70434C8.12138 8.67603 8.22025 8.65969 8.29616 8.64716C8.50225 8.61313 8.53925 8.607 8.77194 8.46503ZM4.66359 6.752C4.35169 7.04847 3.83441 7.75612 3.83441 7.75612C3.83441 7.75612 4.79578 7.81534 5.32525 7.31206C5.85475 6.80875 5.73344 5.95103 5.73344 5.95103C5.73344 5.95103 4.97547 6.45553 4.66359 6.752Z" fill="#212121"/>
</g>
<defs>
<clipPath id="clip0_51_30689">
<rect width="16" height="16" fill="white" transform="translate(0 0.5)"/>
</clipPath>
</defs>
</svg>
