<svg width="16" height="17" viewBox="0 0 16 17" fill="none" xmlns="http://www.w3.org/2000/svg">
<g id="electric" clip-path="url(#clip0_52_30950)">
<path id="Vector" fill-rule="evenodd" clip-rule="evenodd" d="M4.76753 0.518239C4.76444 0.509311 4.77109 0.5 4.78053 0.5H10.4002C10.4062 0.5 10.4116 0.503925 10.4133 0.509681L12.9945 8.84909C12.9973 8.85794 12.9907 8.86691 12.9814 8.86691H9.24016C9.23559 8.86691 9.23231 8.87125 9.23356 8.87566L11.3793 16.4289C11.3834 16.4436 11.3642 16.4532 11.3551 16.441L3.01658 5.35209C3.00977 5.34303 3.01623 5.33009 3.02756 5.33009H6.42303C6.42775 5.33009 6.43106 5.32544 6.4295 5.32097L4.76753 0.518239Z" fill="#212121"/>
</g>
<defs>
<clipPath id="clip0_52_30950">
<rect width="16" height="16" fill="white" transform="translate(0 0.5)"/>
</clipPath>
</defs>
</svg>
