<svg width="16" height="17" viewBox="0 0 16 17" fill="none" xmlns="http://www.w3.org/2000/svg">
<g id="fairy" clip-path="url(#clip0_52_30926)">
<path id="Vector" fill-rule="evenodd" clip-rule="evenodd" d="M3.21019 13.1868L5.7765 12.4427L7.99306 16.4955C7.99597 16.5008 8.0035 16.5008 8.00638 16.4955L10.2229 12.4427L12.7893 13.1868C12.795 13.1885 12.8004 13.1831 12.7987 13.1774L12.0544 10.6618L15.9955 8.50638C16.0008 8.5035 16.0008 8.49597 15.9955 8.49309L12.0219 6.31984L12.7987 3.69453C12.8004 3.68878 12.795 3.68344 12.7893 3.68509L10.1628 4.44669L8.00638 0.503943C8.0035 0.498686 7.99597 0.498685 7.99309 0.503943L5.83672 4.44669L3.21019 3.68509C3.20444 3.68344 3.19909 3.68878 3.20081 3.69453L3.97753 6.31984L0.00394338 8.49309C-0.00131436 8.49597 -0.00131451 8.5035 0.00394325 8.50638L3.94503 10.6618L3.20081 13.1774C3.19909 13.1831 3.20444 13.1885 3.21019 13.1868ZM5.20162 8.52738L7.01972 9.52172L8.01406 11.3398C8.01694 11.3451 8.0245 11.3451 8.02738 11.3398L9.02172 9.52172L10.8398 8.52738C10.845 8.5245 10.845 8.51694 10.8398 8.51406L9.02172 7.51972L8.02738 5.70166C8.0245 5.69637 8.01694 5.69637 8.01406 5.70166L7.01972 7.51972L5.20162 8.51406C5.19637 8.51694 5.19637 8.5245 5.20162 8.52738Z" fill="#212121"/>
</g>
<defs>
<clipPath id="clip0_52_30926">
<rect width="16" height="16" fill="white" transform="translate(0 0.5)"/>
</clipPath>
</defs>
</svg>
