<svg width="16" height="17" viewBox="0 0 16 17" fill="none" xmlns="http://www.w3.org/2000/svg">
<g id="fighting" clip-path="url(#clip0_51_30695)">
<path id="Vector" fill-rule="evenodd" clip-rule="evenodd" d="M2.7573 1.83018C2.95093 1.06567 3.64353 0.5 4.46822 0.5C5.08681 0.5 5.63109 0.818272 5.94622 1.3H6.46225C6.78284 0.970987 7.23075 0.766667 7.72641 0.766667C8.45309 0.766667 9.07722 1.20588 9.34778 1.83333H9.77981C10.0505 1.66433 10.3704 1.56667 10.7131 1.56667C11.4398 1.56667 12.0639 2.00588 12.3344 2.63333H13.5093C13.5193 2.63333 13.5287 2.63604 13.5368 2.64075C13.5905 2.63584 13.6448 2.63333 13.6997 2.63333C14.6744 2.63333 15.4646 3.42348 15.4646 4.39819V9.69019L15.4646 9.7L15.4646 9.70981V9.78603C15.4646 9.81831 15.4637 9.85047 15.4619 9.88247C15.3558 13.5537 12.0547 16.5 7.99791 16.5C3.87419 16.5 0.53125 13.4555 0.53125 9.7C0.53125 7.88722 1.31015 6.24009 2.5798 5.02109C2.57663 6.78837 2.60648 8.61544 2.74408 8.58409C3.11253 8.50009 2.82466 3.02623 2.7573 1.83018Z" fill="#212121"/>
</g>
<defs>
<clipPath id="clip0_51_30695">
<rect width="16" height="16" fill="white" transform="translate(0 0.5)"/>
</clipPath>
</defs>
</svg>
