<svg width="16" height="17" viewBox="0 0 16 17" fill="none" xmlns="http://www.w3.org/2000/svg">
<g id="fire" clip-path="url(#clip0_5_4770)">
<path id="Vector" fill-rule="evenodd" clip-rule="evenodd" d="M11.0081 12.8561C11.2058 12.1332 10.822 10.6472 10.822 10.6472C10.822 10.6472 10.5437 11.8578 10.1088 12.3052C9.73785 12.6869 9.28332 12.9516 8.63144 13.0212C9.16441 12.7623 9.53094 12.2225 9.53094 11.5986C9.53094 10.7228 8.80869 10.0128 7.91775 10.0128C7.02682 10.0128 6.30453 10.7228 6.30453 11.5986C6.30453 11.8378 6.35844 12.0646 6.45491 12.268C5.89766 11.8241 5.81004 11.1123 5.81004 11.1123C5.81004 11.1123 5.18779 13.6958 6.90235 14.911C8.61688 16.1263 11.9756 15.0817 11.9756 15.0817C11.9756 15.0817 7.16907 18.4637 3.60738 14.7828C0.539279 11.612 2.8066 7.43759 2.8066 7.43759C2.8066 7.43759 2.70868 7.82484 2.70868 8.27437C2.70868 8.72391 2.95241 9.06594 2.95241 9.06594C2.95241 9.06594 3.67944 7.53347 4.24525 6.91025C4.78075 6.32044 5.45204 5.84206 6.03185 5.42887C6.47816 5.11081 6.87029 4.83138 7.10447 4.56947C8.39438 3.12715 7.60347 0.5 7.60347 0.5C7.60347 0.5 9.05753 1.78188 9.46347 3.43743C9.61822 4.0685 9.51866 4.78653 9.42966 5.42863C9.28516 6.471 9.16838 7.31328 10.2123 7.25863C11.8992 7.17028 10.4333 4.56947 10.4333 4.56947C10.4333 4.56947 14.2599 6.58072 13.9741 10.0983C13.6882 13.6158 9.79138 14.4155 9.79138 14.4155C9.79138 14.4155 10.8103 13.5789 11.0081 12.8561Z" fill="#212121"/>
</g>
<defs>
<clipPath id="clip0_5_4770">
<rect width="16" height="16" fill="white" transform="translate(0 0.5)"/>
</clipPath>
</defs>
</svg>
