<svg width="16" height="17" viewBox="0 0 16 17" fill="none" xmlns="http://www.w3.org/2000/svg">
<g id="flying" clip-path="url(#clip0_5_4680)">
<path id="Vector" fill-rule="evenodd" clip-rule="evenodd" d="M5.58475 15.4267C7.92859 15.4267 9.93522 14.124 10.7636 12.2774C10.7738 12.2548 7.43772 13.1443 7.54409 12.8299C7.59159 12.6895 9.63659 11.9424 11.1265 11.0711C11.9828 10.5702 12.3772 9.51 12.3772 9.51C12.3772 9.51 10.9345 10.2105 10.2051 10.3882C8.73537 10.7463 7.44159 10.7077 7.44159 10.6704C7.44159 10.5897 9.58988 10.1815 12.5758 8.362C13.9802 7.50615 14.3617 6.03197 14.3617 6.03197C14.3617 6.03197 12.8176 6.95172 11.8842 7.25537C9.67053 7.97547 7.65047 8.19247 7.65047 8.09503C7.65047 7.8864 9.42819 7.39756 11.313 6.48428C12.293 6.00943 13.1417 5.38906 14.1252 4.69915C15.7346 3.57037 16 1.56 16 1.56C16 1.56 14.4127 2.58375 13.6381 2.92373C10.4419 4.32659 7.61966 5.06247 5.58475 5.22178C2.513 5.46228 0 7.6055 0 10.3882C0 13.1708 2.50037 15.4267 5.58475 15.4267Z" fill="#212121"/>
</g>
<defs>
<clipPath id="clip0_5_4680">
<rect width="16" height="16" fill="white" transform="translate(0 0.5)"/>
</clipPath>
</defs>
</svg>
