<svg width="16" height="17" viewBox="0 0 16 17" fill="none" xmlns="http://www.w3.org/2000/svg">
<g id="ghost" clip-path="url(#clip0_52_31056)">
<path id="Vector" fill-rule="evenodd" clip-rule="evenodd" d="M11.5297 16.4446C10.0865 16.5185 8.43425 16.5185 7.87275 16.4446C3.49281 15.8684 0 12.666 0 8.3375C0 4.00897 3.58172 0.5 8 0.5C12.4183 0.5 16 4.00897 16 8.3375C16 10.3507 15.2252 12.1865 13.9519 13.5746C13.6061 13.9515 14.0805 14.2159 14.5626 14.4845C15.0353 14.748 15.5154 15.0155 15.2364 15.3973C14.9289 15.8179 13.2622 16.3559 11.5297 16.4446ZM6.875 7.35781C6.875 8.03412 6.31534 8.58241 5.625 8.58241C4.93466 8.58241 4.375 8.03412 4.375 7.35781C4.375 6.90422 4.62672 6.50825 5.00075 6.29659C5.02228 6.88631 5.50716 7.35778 6.10216 7.35778L6.875 7.35781ZM10.7493 6.29659C10.7277 6.88631 10.2428 7.35778 9.64784 7.35778H8.875C8.875 8.03409 9.43466 8.58241 10.125 8.58241C10.8153 8.58241 11.375 8.03412 11.375 7.35781C11.375 6.90422 11.1233 6.50825 10.7493 6.29659Z" fill="#212121"/>
</g>
<defs>
<clipPath id="clip0_52_31056">
<rect width="16" height="16" fill="white" transform="translate(0 0.5)"/>
</clipPath>
</defs>
</svg>
