<svg width="16" height="17" viewBox="0 0 16 17" fill="none" xmlns="http://www.w3.org/2000/svg">
<g id="ground" clip-path="url(#clip0_51_30679)">
<path id="Vector" fill-rule="evenodd" clip-rule="evenodd" d="M3.52387 14.2423C3.51953 14.2423 3.5165 14.238 3.51794 14.2339L7.60278 2.69169C7.60369 2.68918 7.60606 2.6875 7.60872 2.6875H11.9694C11.9721 2.6875 11.9745 2.68919 11.9753 2.69172L15.9996 14.234C16.001 14.2381 15.998 14.2423 15.9937 14.2423H3.64663H3.52387ZM0.00629081 14.2875C0.00190351 14.2875 -0.00113391 14.2831 0.000405023 14.279L3.04227 6.158C3.04319 6.15553 3.04553 6.15391 3.04816 6.15391H5.69119C5.69556 6.15391 5.69859 6.15825 5.69709 6.16234L2.7557 14.2833C2.7548 14.2858 2.75243 14.2875 2.74979 14.2875H0.00629081Z" fill="#212121"/>
</g>
<defs>
<clipPath id="clip0_51_30679">
<rect width="16" height="16" fill="white" transform="translate(0 0.5)"/>
</clipPath>
</defs>
</svg>
