<svg width="16" height="17" viewBox="0 0 16 17" fill="none" xmlns="http://www.w3.org/2000/svg">
<g id="ice ">
<g id="Group 293">
<path id="Vector" fill-rule="evenodd" clip-rule="evenodd" d="M12.0094 1.72006L12.0586 6.0435L8.28771 7.85372L8.24121 3.77156L12.0094 1.72006Z" fill="#212121"/>
<path id="Vector_2" fill-rule="evenodd" clip-rule="evenodd" d="M15.7897 8.53272L12.0567 10.6679L8.32153 8.52934L12.0548 6.56834L15.7897 8.53272Z" fill="#212121"/>
<path id="Vector_3" fill-rule="evenodd" clip-rule="evenodd" d="M7.65762 8.53272L3.92465 10.6679L0.189453 8.52934L3.92272 6.56834L7.65762 8.53272Z" fill="#212121"/>
<path id="Vector_4" fill-rule="evenodd" clip-rule="evenodd" d="M3.88257 1.70235L7.75713 3.62128L7.65807 7.80303L3.99976 5.99122L3.88257 1.70235Z" fill="#212121"/>
<path id="Vector_5" fill-rule="evenodd" clip-rule="evenodd" d="M12.115 15.2977L8.24048 13.3787L8.33954 9.19694L11.9979 11.0088L12.115 15.2977Z" fill="#212121"/>
<path id="Vector_6" fill-rule="evenodd" clip-rule="evenodd" d="M4.01629 15.3366L3.96704 11.0131L7.73801 9.20291L7.78451 13.285L4.01629 15.3366Z" fill="#212121"/>
</g>
</g>
</svg>
