<svg width="16" height="17" viewBox="0 0 16 17" fill="none" xmlns="http://www.w3.org/2000/svg">
<g id="psychic" clip-path="url(#clip0_52_30825)">
<path id="Vector" fill-rule="evenodd" clip-rule="evenodd" d="M14.2477 13.787C14.2477 13.787 12.2302 15.4051 8.21541 14.7355C5.16947 14.2275 3.54491 10.8698 3.54491 9.06497C3.54491 4.78591 6.71197 3.81213 8.85312 3.81213C10.9942 3.81213 12.391 5.89963 12.391 7.51588C12.391 9.13213 11.2479 10.5458 9.46894 10.5458C7.69 10.5458 7.16312 9.29691 7.16312 8.14869C7.16312 7.0005 8.09209 6.59597 8.93931 6.59597C9.78653 6.59597 10.0766 7.31928 10.0766 7.94094C10.0766 8.56263 9.59428 8.78525 9.19197 8.78525C8.78966 8.78525 8.74987 8.58228 8.59591 8.36897C8.44191 8.15569 8.79228 7.34831 8.21541 7.34831C7.63853 7.34831 7.531 8.27647 7.531 8.27647C7.531 8.27647 7.74131 10.0681 9.46894 10.0372C11.1966 10.0063 12.0162 8.67066 11.778 7.34831C11.5398 6.02594 10.2565 4.62078 8.00416 4.90472C5.75184 5.18866 4.83225 7.46441 5.23759 9.89641C5.64294 12.3284 8.55647 13.7376 10.8472 13.2306C13.1381 12.7236 15.4197 11.0652 15.4197 6.86041C15.4197 2.65559 11.778 0.128119 7.43566 0.544661C3.09331 0.9612 0.397781 4.75756 0.570318 9.31897C0.742856 13.8804 5.07109 16.3647 8.73106 16.4927C12.391 16.6208 14.6347 14.5021 14.6347 14.5021C14.6347 14.5021 15.1393 14.0521 14.9415 13.7008C14.7437 13.3494 14.2477 13.787 14.2477 13.787Z" fill="#212121"/>
</g>
<defs>
<clipPath id="clip0_52_30825">
<rect width="16" height="16" fill="white" transform="translate(0 0.5)"/>
</clipPath>
</defs>
</svg>
