<svg width="16" height="17" viewBox="0 0 16 17" fill="none" xmlns="http://www.w3.org/2000/svg">
<g id="rock" clip-path="url(#clip0_52_30747)">
<path id="Vector" fill-rule="evenodd" clip-rule="evenodd" d="M12.3481 8.14866C12.3472 8.14741 12.3468 8.14584 12.347 8.14431L13.3678 2.19224C13.3683 2.1895 13.3707 2.1875 13.3734 2.1875H13.6965C13.699 2.1875 13.7012 2.18912 13.7019 2.19149L16.0016 9.47284C16.0023 9.47509 16.0015 9.47759 15.9997 9.47906L14.3041 10.8029C14.3015 10.8049 14.2979 10.8044 14.296 10.8018L12.3481 8.14866ZM-0.03125 12.0944C-0.03125 12.0969 -0.0296626 12.0991 -0.0273159 12.0999L3.46797 13.2427C3.46966 13.2433 3.47153 13.243 3.473 13.242L11.2858 7.84825C11.2871 7.84734 11.288 7.84594 11.2882 7.84438L12.126 2.22276C12.1265 2.21931 12.1238 2.21621 12.1204 2.21621H5.20019C5.19847 2.21621 5.19688 2.21697 5.19578 2.21828L-0.0299367 8.52231C-0.0307856 8.52334 -0.03125 8.52462 -0.03125 8.52597V12.0944ZM4.92447 13.5339L8.743 14.7847C8.74472 14.7853 8.74662 14.785 8.74809 14.784L13.2943 11.5229C13.2968 11.5212 13.2975 11.5177 13.2957 11.5151L11.5915 8.97903C11.5897 8.97638 11.5862 8.97569 11.5835 8.9775L4.92447 13.5339Z" fill="#212121"/>
</g>
<defs>
<clipPath id="clip0_52_30747">
<rect width="16" height="16" fill="white" transform="translate(0 0.5)"/>
</clipPath>
</defs>
</svg>
