<svg width="16" height="17" viewBox="0 0 16 17" fill="none" xmlns="http://www.w3.org/2000/svg">
<g id="steel">
<path id="Vector" fill-rule="evenodd" clip-rule="evenodd" d="M0.00159721 8.45397C-0.000531394 8.45034 -0.000532462 8.44584 0.00159436 8.44219L4.02484 1.56826C4.02694 1.56469 4.03078 1.5625 4.03491 1.5625H12.0092C12.0133 1.5625 12.0172 1.56471 12.0193 1.56831L15.9984 8.44225C16.0005 8.44584 16.0005 8.45031 15.9984 8.45391L12.0193 15.3201C12.0172 15.3237 12.0133 15.3259 12.0092 15.3259H4.03491C4.03078 15.3259 4.02694 15.3238 4.02484 15.3202L0.00159721 8.45397ZM11.7068 8.44422C11.7068 10.4907 10.0478 12.1497 8.00125 12.1497C5.95475 12.1497 4.29572 10.4907 4.29572 8.44422C4.29572 6.39769 5.95475 4.73869 8.00125 4.73869C10.0478 4.73869 11.7068 6.39769 11.7068 8.44422Z" fill="#212121"/>
</g>
</svg>
