<svg width="16" height="17" viewBox="0 0 16 17" fill="none" xmlns="http://www.w3.org/2000/svg">
<g id="water" clip-path="url(#clip0_5_4698)">
<path id="Vector" fill-rule="evenodd" clip-rule="evenodd" d="M13.1929 11.3286C13.1929 14.1843 10.8692 16.4993 8.00269 16.4993C5.13622 16.4993 2.8125 14.1843 2.8125 11.3286C2.8125 8.55122 7.72194 0.923372 7.99119 0.507119C7.99734 0.497627 8.00806 0.497627 8.01419 0.507119C8.28344 0.923372 13.1929 8.55122 13.1929 11.3286ZM7.1375 14.8416C4.50375 14.2653 4.95444 11.3478 4.95444 11.3478C4.95444 11.3478 5.67362 13.109 7.41891 13.6795C9.16416 14.25 11.2733 13.4133 11.2733 13.4133C11.2733 13.4133 9.77125 15.4178 7.1375 14.8416Z" fill="#212121"/>
</g>
<defs>
<clipPath id="clip0_5_4698">
<rect width="16" height="16" fill="white" transform="translate(0 0.5)"/>
</clipPath>
</defs>
</svg>
